<svg xmlns="http://www.w3.org/2000/svg" xmlns:xlink="http://www.w3.org/1999/xlink" width="500" zoomAndPan="magnify" viewBox="0 0 375 374.999991" height="500" preserveAspectRatio="xMidYMid meet" version="1.2"><defs><clipPath id="062df301ec"><path d="M 121.875 112.5 L 253.125 112.5 L 253.125 262.5 L 121.875 262.5 Z M 121.875 112.5 "/></clipPath><clipPath id="f57500e43e"><path d="M 66.9375 79.445312 L 308 79.445312 L 308 295.445312 L 66.9375 295.445312 Z M 66.9375 79.445312 "/></clipPath><clipPath id="ea0bdfcc1a"><path d="M 136.703125 131.296875 L 237.953125 131.296875 L 237.953125 231.796875 L 136.703125 231.796875 Z M 136.703125 131.296875 "/></clipPath></defs><g id="947e537ec2"><g clip-rule="nonzero" clip-path="url(#062df301ec)"><path style=" stroke:none;fill-rule:nonzero;fill:#ffffff;fill-opacity:1;" d="M 251.25 112.5 L 123.75 112.5 C 122.714844 112.5 121.875 113.339844 121.875 114.375 L 121.875 188.863281 C 121.875 212.066406 134.53125 233.480469 154.910156 244.746094 L 186.59375 262.265625 C 186.875 262.421875 187.1875 262.5 187.5 262.5 C 187.8125 262.5 188.125 262.421875 188.40625 262.265625 L 220.089844 244.746094 C 240.46875 233.480469 253.125 212.066406 253.125 188.863281 L 253.125 114.375 C 253.125 113.339844 252.285156 112.5 251.25 112.5 Z M 249.375 188.863281 C 249.375 210.703125 237.457031 230.859375 218.277344 241.464844 L 187.5 258.484375 L 156.722656 241.464844 C 137.542969 230.859375 125.625 210.703125 125.625 188.863281 L 125.625 116.25 L 249.375 116.25 Z M 249.375 188.863281 "/></g><g clip-rule="nonzero" clip-path="url(#f57500e43e)"><path style=" stroke:none;fill-rule:nonzero;fill:#ffffff;fill-opacity:1;" d="M 298.421875 195.503906 C 300.96875 193.242188 304.046875 191.605469 307.367188 190.742188 C 306.984375 192.375 306.644531 193.867188 306.164062 195.214844 C 305.683594 196.5625 305.25 197.859375 304.769531 198.96875 C 303.902344 200.9375 302.894531 202.816406 301.691406 204.59375 C 300.777344 205.894531 299.765625 207.046875 298.613281 208.105469 C 298.179688 208.492188 297.648438 208.875 297.167969 209.214844 C 296.734375 209.503906 296.253906 209.742188 295.773438 209.984375 C 294.476562 210.609375 293.03125 210.847656 291.589844 210.65625 C 291.300781 210.609375 291.011719 210.558594 290.722656 210.464844 C 289.425781 214.839844 287.886719 219.171875 286.058594 223.40625 C 285.863281 223.789062 285.71875 224.175781 285.527344 224.558594 C 285.816406 224.175781 286.152344 223.789062 286.488281 223.355469 C 286.828125 222.921875 287.355469 222.441406 287.789062 221.960938 C 288.222656 221.480469 288.703125 221 289.230469 220.566406 C 290.339844 219.605469 291.492188 218.785156 292.742188 218.015625 C 295.679688 216.285156 299.046875 215.226562 302.460938 215.035156 C 301.835938 216.476562 301.160156 217.871094 300.390625 219.21875 C 300.054688 219.84375 299.71875 220.46875 299.382812 221.046875 C 299.046875 221.625 298.660156 222.152344 298.324219 222.683594 C 297.601562 223.691406 296.929688 224.65625 296.253906 225.472656 C 295.535156 226.289062 294.859375 227.011719 294.1875 227.636719 C 291.589844 230.1875 289.183594 231.292969 287.355469 231.773438 C 285.960938 232.160156 284.515625 232.113281 283.121094 231.628906 C 282.832031 231.535156 282.546875 231.390625 282.304688 231.246094 C 280.910156 233.890625 279.417969 236.441406 277.832031 238.941406 C 276.722656 240.675781 275.570312 242.308594 274.367188 243.945312 C 274.753906 243.65625 275.136719 243.320312 275.523438 243.03125 C 279.417969 240 285.046875 237.113281 292.839844 238.078125 C 291.15625 240.480469 289.28125 242.695312 287.210938 244.761719 C 285.671875 246.253906 283.941406 247.601562 282.113281 248.804688 C 280.765625 249.621094 279.371094 250.296875 277.878906 250.824219 C 276.773438 251.160156 275.667969 251.355469 274.511719 251.402344 C 273.070312 251.449219 271.671875 251.113281 270.421875 250.34375 C 270.183594 250.199219 269.941406 250.007812 269.699219 249.8125 C 268.835938 250.824219 267.921875 251.882812 267.007812 252.84375 C 264.503906 255.539062 261.90625 258.089844 259.117188 260.445312 C 259.550781 260.203125 260.03125 260.011719 260.464844 259.773438 C 265.035156 257.800781 271.097656 256.117188 278.550781 258.761719 C 273.550781 263.332031 269.027344 265.6875 265.5625 266.941406 C 264.074219 267.46875 262.535156 267.757812 260.945312 267.949219 C 259.792969 268.046875 258.683594 267.949219 257.53125 267.710938 C 256.136719 267.421875 254.835938 266.746094 253.828125 265.738281 C 253.632812 265.496094 253.394531 265.257812 253.25 265.015625 C 249.207031 267.949219 244.878906 270.546875 240.355469 272.710938 C 240.839844 272.617188 241.320312 272.519531 241.847656 272.421875 C 246.753906 271.652344 253.058594 271.507812 259.742188 275.886719 C 253.683594 279.207031 248.632812 280.3125 244.976562 280.648438 C 243.386719 280.746094 241.800781 280.699219 240.210938 280.457031 C 239.105469 280.265625 238 279.878906 236.988281 279.351562 C 235.691406 278.726562 234.632812 277.714844 233.910156 276.464844 C 233.765625 276.175781 233.621094 275.933594 233.527344 275.597656 C 229.773438 276.992188 225.925781 278.101562 221.980469 278.871094 C 216.207031 280.023438 210.339844 280.554688 204.421875 280.410156 L 204.324219 280.410156 C 201.535156 280.359375 198.648438 280.3125 195.859375 280.746094 C 193.503906 281.128906 191.242188 281.851562 189.125 282.910156 C 191.242188 284.257812 193.214844 285.796875 195.042969 287.527344 L 196.628906 289.066406 C 196.964844 289.453125 197.300781 289.789062 197.640625 290.175781 L 198.121094 290.75 C 198.9375 291.617188 199.707031 292.578125 200.476562 293.492188 L 201.007812 294.121094 C 201.296875 294.457031 201.246094 294.9375 200.910156 295.175781 C 200.765625 295.273438 200.621094 295.371094 200.429688 295.371094 C 200.1875 295.371094 199.996094 295.273438 199.851562 295.082031 L 199.324219 294.457031 C 198.601562 293.542969 197.832031 292.628906 197.0625 291.808594 L 196.53125 291.234375 C 196.195312 290.894531 195.90625 290.511719 195.570312 290.175781 L 194.03125 288.683594 C 192.105469 286.808594 189.941406 285.171875 187.632812 283.777344 C 185.324219 285.171875 183.160156 286.808594 181.1875 288.683594 L 179.648438 290.175781 C 179.359375 290.511719 179.023438 290.847656 178.734375 291.183594 L 178.203125 291.761719 C 177.386719 292.628906 176.664062 293.542969 175.945312 294.40625 L 175.414062 295.035156 C 175.269531 295.226562 175.03125 295.320312 174.835938 295.320312 C 174.40625 295.320312 174.066406 294.984375 174.066406 294.550781 C 174.066406 294.359375 174.117188 294.214844 174.261719 294.070312 L 174.789062 293.445312 C 175.511719 292.53125 176.28125 291.570312 177.148438 290.703125 L 177.628906 290.175781 C 177.964844 289.835938 178.253906 289.453125 178.589844 289.117188 L 180.175781 287.578125 C 182.003906 285.84375 183.976562 284.304688 186.046875 282.910156 C 183.929688 281.851562 181.667969 281.128906 179.3125 280.746094 C 176.519531 280.3125 173.636719 280.359375 170.84375 280.410156 L 170.75 280.410156 C 164.878906 280.554688 158.960938 280.023438 153.191406 278.871094 C 152.277344 278.675781 151.410156 278.484375 150.496094 278.292969 C 150.449219 278.582031 150.351562 278.871094 150.207031 279.160156 C 149.679688 280.503906 148.714844 281.613281 147.515625 282.382812 C 146.550781 283.007812 145.492188 283.535156 144.433594 283.871094 C 141.886719 284.546875 139.289062 284.785156 136.640625 284.546875 C 135.4375 284.449219 134.238281 284.304688 133.082031 284.113281 C 131.832031 283.871094 130.4375 283.535156 128.992188 283.152344 C 127.550781 282.71875 126.058594 282.140625 124.421875 281.515625 C 125.816406 280.3125 127.40625 279.351562 129.042969 278.53125 C 129.761719 278.148438 130.53125 277.859375 131.300781 277.570312 C 132.023438 277.28125 132.792969 277.042969 133.5625 276.847656 C 134.957031 276.511719 136.402344 276.273438 137.84375 276.175781 C 139.144531 276.03125 140.492188 276.03125 141.789062 276.128906 C 142.320312 276.128906 142.800781 276.175781 143.28125 276.222656 C 140.921875 275.40625 138.613281 274.492188 136.351562 273.480469 C 134.042969 272.472656 131.832031 271.316406 129.617188 270.019531 C 129.472656 270.308594 129.28125 270.546875 129.089844 270.789062 C 128.175781 271.894531 126.972656 272.710938 125.625 273.144531 C 124.519531 273.480469 123.414062 273.675781 122.257812 273.722656 C 120.671875 273.722656 119.082031 273.53125 117.542969 273.195312 C 113.9375 272.328125 109.222656 270.402344 103.738281 266.3125 C 110.90625 262.945312 117.160156 264.003906 121.875 265.542969 C 122.355469 265.6875 122.835938 265.882812 123.316406 266.027344 C 119.179688 263.1875 115.285156 259.964844 111.675781 256.453125 C 111.484375 256.691406 111.242188 256.886719 111 257.078125 C 109.847656 257.945312 108.453125 258.425781 107.058594 258.519531 C 105.949219 258.570312 104.796875 258.519531 103.691406 258.28125 C 102.152344 257.894531 100.707031 257.367188 99.265625 256.644531 C 98.351562 256.210938 97.484375 255.683594 96.667969 255.152344 C 95.753906 254.578125 94.789062 253.902344 93.78125 253.085938 C 92.769531 252.269531 91.808594 251.355469 90.75 250.34375 C 89.691406 249.332031 88.679688 248.128906 87.527344 246.878906 C 95.222656 245.246094 101.09375 247.648438 105.277344 250.296875 C 105.710938 250.535156 106.144531 250.824219 106.574219 251.113281 C 103.257812 247.359375 100.226562 243.367188 97.484375 239.136719 C 97.242188 239.277344 96.957031 239.472656 96.714844 239.566406 C 95.414062 240.144531 93.925781 240.335938 92.53125 240.050781 C 90.652344 239.761719 88.199219 238.847656 85.363281 236.539062 C 82.523438 234.226562 79.253906 230.523438 76.03125 224.605469 C 83.871094 224.558594 89.113281 228.167969 92.625 231.628906 C 93.011719 231.96875 93.347656 232.351562 93.636719 232.6875 C 91.953125 229.65625 90.414062 226.484375 89.019531 223.261719 C 88.441406 221.863281 87.863281 220.46875 87.335938 219.074219 C 87.046875 219.171875 86.757812 219.265625 86.46875 219.316406 C 85.074219 219.605469 83.582031 219.507812 82.234375 218.980469 C 81.175781 218.59375 80.214844 218.015625 79.300781 217.34375 C 78.050781 216.429688 76.894531 215.324219 75.933594 214.070312 C 75.355469 213.351562 74.777344 212.582031 74.203125 211.667969 C 73.914062 211.234375 73.625 210.753906 73.289062 210.273438 C 72.949219 209.789062 72.710938 209.261719 72.421875 208.683594 C 71.84375 207.578125 71.265625 206.375 70.691406 205.027344 C 70.113281 203.679688 69.632812 202.238281 69.148438 200.652344 C 76.941406 202.09375 81.226562 206.664062 84.0625 210.753906 C 84.351562 211.1875 84.640625 211.667969 84.878906 212.101562 C 83.390625 207.289062 82.1875 202.382812 81.320312 197.425781 C 81.03125 197.476562 80.742188 197.523438 80.40625 197.523438 C 78.964844 197.523438 77.570312 197.140625 76.367188 196.371094 C 74.730469 195.40625 72.855469 193.628906 71.121094 190.40625 C 70.640625 189.539062 70.207031 188.625 69.824219 187.710938 C 69.4375 186.699219 69.054688 185.640625 68.667969 184.4375 C 68.476562 183.863281 68.285156 183.238281 68.140625 182.5625 C 67.996094 181.890625 67.851562 181.214844 67.707031 180.542969 C 67.417969 179.148438 67.128906 177.609375 66.9375 175.972656 C 70.160156 177.175781 73.046875 179.097656 75.355469 181.648438 C 76.316406 182.707031 77.183594 183.863281 77.953125 185.113281 C 78.628906 186.21875 79.203125 187.421875 79.734375 188.625 C 79.925781 189.105469 80.117188 189.539062 80.261719 190.019531 C 80.214844 189.777344 80.214844 189.492188 80.167969 189.25 C 79.683594 184.535156 79.492188 179.820312 79.542969 175.058594 C 79.253906 175.058594 78.914062 175.058594 78.628906 175.011719 C 77.230469 174.769531 75.886719 174.097656 74.828125 173.132812 C 74.007812 172.363281 73.289062 171.5 72.710938 170.535156 C 71.890625 169.238281 71.265625 167.792969 70.785156 166.304688 C 70.496094 165.4375 70.257812 164.476562 70.015625 163.417969 C 69.777344 162.359375 69.632812 161.253906 69.488281 160 C 69.34375 158.65625 69.246094 157.308594 69.246094 155.960938 C 69.199219 154.421875 69.246094 152.882812 69.34375 151.34375 C 76.03125 155.527344 78.484375 161.347656 79.589844 166.160156 C 79.683594 166.640625 79.78125 167.121094 79.878906 167.601562 C 80.214844 163.082031 80.792969 158.605469 81.65625 154.179688 C 81.753906 153.699219 81.851562 153.21875 81.945312 152.785156 C 81.65625 152.738281 81.367188 152.640625 81.03125 152.546875 C 79.683594 152.0625 78.53125 151.152344 77.664062 149.996094 C 76.992188 149.082031 76.460938 148.121094 76.03125 147.0625 C 75.5 145.617188 75.117188 144.078125 74.921875 142.539062 C 74.488281 138.933594 74.632812 133.976562 76.414062 127.53125 C 77.761719 128.78125 78.914062 130.175781 79.925781 131.667969 C 80.792969 133.015625 81.511719 134.457031 82.089844 135.949219 C 82.621094 137.296875 82.957031 138.691406 83.195312 140.132812 C 83.4375 141.433594 83.582031 142.730469 83.582031 144.03125 C 83.582031 144.511719 83.582031 144.992188 83.582031 145.472656 C 84.878906 140.664062 86.515625 135.949219 88.441406 131.332031 C 88.152344 131.234375 87.910156 131.089844 87.621094 130.945312 C 86.371094 130.175781 85.410156 129.070312 84.832031 127.769531 C 84.015625 126.085938 83.390625 123.539062 83.679688 119.882812 C 83.964844 116.226562 85.121094 111.414062 88.199219 105.402344 C 89.257812 106.894531 90.125 108.527344 90.796875 110.210938 C 91.375 111.703125 91.757812 113.242188 92 114.832031 C 92.386719 117.574219 92.335938 120.363281 91.808594 123.058594 C 91.710938 123.539062 91.617188 124.019531 91.519531 124.5 C 92.097656 123.34375 92.671875 122.191406 93.300781 121.085938 C 95.078125 117.8125 97.050781 114.636719 99.167969 111.609375 C 98.925781 111.414062 98.6875 111.269531 98.445312 111.03125 C 97.386719 110.019531 96.667969 108.769531 96.378906 107.328125 C 96.136719 106.21875 96.042969 105.113281 96.089844 103.960938 C 96.183594 102.371094 96.472656 100.832031 96.957031 99.339844 C 98.0625 95.828125 100.226562 91.308594 104.699219 86.113281 C 105.375 87.796875 105.855469 89.574219 106.09375 91.402344 C 106.335938 92.992188 106.335938 94.625 106.238281 96.214844 C 106.144531 97.65625 105.902344 99.101562 105.519531 100.496094 C 105.179688 101.792969 104.796875 102.996094 104.265625 104.246094 C 104.074219 104.730469 103.882812 105.160156 103.691406 105.59375 C 106.914062 101.601562 110.472656 97.898438 114.273438 94.433594 C 114.371094 94.195312 114.417969 93.953125 114.5625 93.664062 C 114.898438 92.894531 115.285156 92.125 115.714844 91.355469 C 115.957031 90.921875 116.292969 90.441406 116.582031 89.960938 C 116.871094 89.480469 117.304688 89 117.738281 88.515625 C 119.902344 86.0625 122.546875 84.042969 125.53125 82.648438 C 129.8125 80.578125 134.476562 79.523438 139.191406 79.570312 C 136.210938 83.035156 132.839844 86.015625 129.328125 88.804688 C 126.972656 90.683594 124.375 92.316406 121.679688 93.664062 C 121.105469 93.953125 120.574219 94.144531 120.09375 94.386719 C 119.613281 94.625 119.132812 94.820312 118.652344 94.964844 C 117.738281 95.300781 116.917969 95.492188 116.246094 95.683594 C 115.957031 95.734375 115.714844 95.828125 115.523438 95.828125 C 114.03125 97.175781 112.636719 98.523438 111.242188 99.964844 C 111.628906 99.726562 112.011719 99.535156 112.398438 99.339844 C 113.503906 98.765625 114.707031 98.28125 115.957031 97.992188 C 117.304688 97.65625 118.652344 97.511719 120.046875 97.5625 C 122.882812 97.65625 125.960938 98.714844 129.042969 100.976562 C 124.566406 103.382812 121.007812 105.015625 118.074219 106.027344 C 115.8125 106.894531 113.40625 107.277344 110.953125 107.183594 C 109.558594 107.132812 108.164062 106.703125 106.960938 105.980469 C 106.71875 105.835938 106.480469 105.644531 106.289062 105.449219 C 103.160156 109.203125 100.273438 113.195312 97.726562 117.378906 C 98.0625 117.042969 98.398438 116.753906 98.734375 116.464844 C 102.4375 113.292969 108.308594 111.078125 115.378906 114.15625 C 111.386719 117.667969 108.308594 120.171875 105.613281 121.804688 C 104.460938 122.574219 103.207031 123.203125 101.957031 123.683594 C 100.996094 124.066406 99.984375 124.355469 98.925781 124.546875 C 97.53125 124.789062 96.089844 124.691406 94.742188 124.257812 C 94.453125 124.164062 94.214844 124.066406 93.972656 123.921875 C 91.710938 128.253906 89.738281 132.773438 88.054688 137.390625 C 88.296875 137.007812 88.585938 136.621094 88.875 136.238281 C 91.855469 132.390625 97.097656 128.972656 104.699219 130.464844 C 101.667969 134.746094 99.070312 137.824219 96.8125 140.039062 C 95.078125 141.769531 93.058594 143.164062 90.796875 144.128906 C 89.5 144.65625 88.054688 144.847656 86.660156 144.65625 C 86.371094 144.609375 86.082031 144.558594 85.792969 144.464844 C 84.832031 147.832031 84.015625 151.246094 83.339844 154.710938 C 83.101562 156.105469 82.859375 157.5 82.621094 158.847656 C 82.8125 158.414062 83.003906 157.980469 83.195312 157.546875 C 84.398438 155.144531 86.132812 153.074219 88.34375 151.535156 C 90.652344 149.898438 93.78125 148.792969 97.582031 148.695312 C 95.414062 153.554688 93.539062 157.117188 91.710938 159.714844 C 90.894531 160.867188 90.027344 161.925781 89.066406 162.886719 C 88.296875 163.65625 87.476562 164.28125 86.5625 164.859375 C 85.363281 165.628906 84.015625 166.0625 82.621094 166.160156 C 82.332031 166.160156 82.042969 166.160156 81.753906 166.160156 C 81.320312 171.066406 81.175781 175.972656 81.320312 180.878906 C 81.417969 180.445312 81.5625 179.964844 81.65625 179.53125 C 82.378906 176.984375 83.726562 174.625 85.554688 172.652344 C 87.910156 170.34375 90.894531 168.757812 94.117188 168.132812 C 92.914062 173.328125 91.710938 177.175781 90.363281 180.0625 C 89.789062 181.3125 89.113281 182.5625 88.34375 183.71875 C 87.765625 184.582031 87.046875 185.402344 86.277344 186.121094 C 85.265625 187.085938 84.015625 187.808594 82.621094 188.144531 C 82.332031 188.191406 82.042969 188.238281 81.753906 188.289062 C 81.800781 188.625 81.800781 188.960938 81.851562 189.25 C 82.28125 193.820312 83.054688 198.339844 84.0625 202.816406 C 84.0625 202.335938 84.109375 201.902344 84.160156 201.421875 C 84.304688 200.167969 84.542969 198.917969 84.929688 197.667969 C 85.363281 196.371094 85.988281 195.117188 86.757812 193.964844 C 88.296875 191.558594 90.847656 189.441406 94.359375 187.949219 C 93.875 198.582031 92.242188 204.066406 89.933594 207 C 89.113281 208.15625 88.007812 209.070312 86.707031 209.644531 C 86.421875 209.789062 86.132812 209.886719 85.84375 209.933594 C 87.09375 214.265625 88.632812 218.546875 90.414062 222.683594 C 90.558594 223.019531 90.75 223.355469 90.894531 223.691406 C 90.796875 223.261719 90.75 222.777344 90.703125 222.347656 C 90.652344 221.722656 90.605469 221.09375 90.605469 220.46875 C 90.605469 219.84375 90.652344 219.171875 90.75 218.496094 C 90.894531 217.101562 91.277344 215.804688 91.808594 214.503906 C 93.15625 211.472656 95.320312 208.925781 98.15625 207.191406 C 98.300781 208.539062 98.542969 209.742188 98.640625 210.898438 C 98.734375 212.050781 98.832031 213.15625 98.925781 214.167969 C 99.023438 215.179688 99.023438 216.140625 99.023438 217.054688 C 99.023438 217.96875 99.070312 218.785156 99.023438 219.554688 C 98.832031 222.730469 98.300781 224.992188 97.484375 226.628906 C 96.90625 227.925781 95.992188 229.03125 94.839844 229.898438 C 94.597656 230.089844 94.359375 230.234375 94.070312 230.378906 C 95.414062 232.976562 96.90625 235.527344 98.445312 237.980469 C 99.503906 239.664062 100.660156 241.300781 101.8125 242.886719 C 101.621094 242.453125 101.476562 242.019531 101.332031 241.589844 C 99.890625 236.921875 100.035156 230.714844 105.566406 225.28125 C 106.433594 227.78125 107.203125 229.898438 107.683594 231.917969 C 108.210938 233.652344 108.597656 235.382812 108.886719 237.164062 C 109.125 238.507812 109.222656 239.90625 109.222656 241.25 C 109.222656 242.308594 109.125 243.320312 108.886719 244.378906 C 108.597656 245.773438 107.921875 247.074219 107.007812 248.128906 C 106.816406 248.371094 106.578125 248.5625 106.382812 248.757812 C 107.25 249.765625 108.117188 250.777344 109.03125 251.738281 C 111.433594 254.335938 114.03125 256.835938 116.726562 259.148438 C 116.484375 258.808594 116.199219 258.425781 116.003906 258.039062 C 115.378906 256.933594 114.851562 255.78125 114.417969 254.578125 C 113.984375 253.277344 113.792969 251.882812 113.742188 250.488281 C 113.695312 249.765625 113.742188 249.042969 113.839844 248.324219 C 113.9375 247.554688 114.082031 246.785156 114.320312 246.015625 C 114.800781 244.332031 115.570312 242.742188 116.535156 241.25 C 119.277344 245.675781 121.199219 248.996094 122.355469 251.929688 C 122.882812 253.183594 123.316406 254.480469 123.605469 255.828125 C 123.847656 256.835938 123.992188 257.894531 123.992188 258.90625 C 124.039062 260.300781 123.703125 261.695312 123.078125 262.996094 C 122.933594 263.234375 122.789062 263.476562 122.59375 263.714844 C 126.539062 266.601562 130.773438 269.105469 135.199219 271.222656 C 134.863281 270.933594 134.523438 270.644531 134.1875 270.308594 C 133.273438 269.394531 132.503906 268.429688 131.785156 267.371094 C 131.0625 266.21875 130.484375 264.917969 130.148438 263.621094 C 129.761719 262.175781 129.570312 260.636719 129.667969 259.148438 C 129.761719 257.414062 130.101562 255.683594 130.675781 254.046875 C 134.285156 257.605469 136.980469 260.300781 138.808594 262.851562 C 139.625 263.910156 140.394531 265.0625 140.972656 266.265625 C 141.453125 267.179688 141.835938 268.140625 142.125 269.152344 C 142.511719 270.5 142.605469 271.941406 142.320312 273.335938 C 142.269531 273.625 142.175781 273.914062 142.078125 274.15625 C 145.734375 275.503906 149.535156 276.609375 153.382812 277.378906 C 159.058594 278.484375 164.832031 279.015625 170.605469 278.871094 L 170.699219 278.871094 C 173.585938 278.820312 176.519531 278.773438 179.457031 279.207031 C 182.292969 279.640625 185.035156 280.601562 187.585938 281.949219 C 190.136719 280.554688 192.878906 279.640625 195.714844 279.207031 C 198.601562 278.820312 201.535156 278.726562 204.46875 278.871094 L 204.566406 278.871094 C 210.339844 279.015625 216.113281 278.484375 221.789062 277.378906 C 222.652344 277.1875 223.519531 276.992188 224.433594 276.800781 C 224.386719 276.511719 224.335938 276.222656 224.289062 275.933594 C 224.195312 274.539062 224.386719 273.097656 224.964844 271.796875 C 225.347656 270.835938 225.828125 269.921875 226.453125 269.105469 C 227.222656 268 228.042969 266.941406 229.003906 265.976562 C 229.535156 265.449219 230.109375 264.824219 230.734375 264.246094 C 231.359375 263.667969 232.082031 263.042969 232.804688 262.417969 C 233.527344 261.792969 234.34375 261.070312 235.210938 260.398438 C 236.074219 259.722656 236.988281 258.90625 238 258.183594 C 238.433594 259.867188 238.578125 261.648438 238.480469 263.378906 C 238.433594 264.148438 238.335938 264.917969 238.144531 265.6875 C 237.953125 266.410156 237.757812 267.085938 237.46875 267.757812 C 236.941406 269.054688 236.269531 270.210938 235.402344 271.316406 C 234.585938 272.28125 233.671875 273.195312 232.707031 274.011719 C 232.324219 274.300781 231.9375 274.539062 231.554688 274.78125 C 233.816406 274.011719 236.074219 273.097656 238.289062 272.136719 C 240.5 271.171875 242.761719 269.96875 244.925781 268.769531 C 244.78125 268.527344 244.636719 268.238281 244.542969 268 C 244.0625 266.652344 243.867188 265.257812 244.0625 263.859375 C 244.15625 262.851562 244.398438 261.792969 244.78125 260.832031 C 245.214844 259.53125 245.746094 258.28125 246.417969 257.078125 C 247.863281 254.289062 250.074219 251.160156 253.199219 247.074219 C 254.019531 248.613281 254.597656 250.246094 254.882812 251.980469 C 255.027344 252.75 255.125 253.519531 255.171875 254.335938 C 255.171875 255.058594 255.171875 255.78125 255.078125 256.5 C 254.882812 257.847656 254.546875 259.195312 254.019531 260.445312 C 253.488281 261.601562 252.863281 262.707031 252.09375 263.714844 C 251.804688 264.101562 251.515625 264.4375 251.230469 264.773438 C 255.269531 261.984375 259.023438 258.859375 262.535156 255.441406 C 262.339844 255.25 262.148438 255.007812 261.957031 254.769531 C 261.136719 253.613281 260.609375 252.269531 260.464844 250.871094 C 260.320312 249.8125 260.320312 248.804688 260.417969 247.746094 C 260.511719 246.398438 260.753906 245.003906 261.136719 243.703125 C 261.570312 241.972656 262.148438 240.289062 262.820312 238.652344 C 263.160156 237.691406 263.542969 236.679688 264.023438 235.625 C 264.503906 234.613281 264.9375 233.410156 265.515625 232.257812 C 270.519531 238.125 270.183594 244.332031 268.304688 248.851562 C 268.113281 249.285156 267.921875 249.671875 267.730469 250.054688 C 270.953125 246.398438 273.933594 242.453125 276.582031 238.367188 C 276.339844 238.222656 276.097656 238.027344 275.859375 237.835938 C 274.800781 236.875 273.984375 235.71875 273.5 234.371094 C 272.828125 232.640625 272.492188 230.332031 272.539062 227.203125 C 272.585938 224.078125 273.261719 220.085938 274.464844 214.984375 C 280.574219 219.699219 281.488281 225.859375 280.621094 230.667969 C 280.523438 231.148438 280.429688 231.582031 280.332031 232.015625 C 281.96875 229.03125 283.507812 225.953125 284.855469 222.777344 C 285.429688 221.433594 286.007812 220.039062 286.539062 218.640625 C 286.25 218.546875 286.007812 218.402344 285.71875 218.257812 C 284.515625 217.535156 283.460938 216.574219 282.738281 215.371094 C 280.667969 212.246094 279.464844 206.617188 279.851562 196.03125 C 286.683594 199.496094 288.941406 205.363281 288.941406 210.222656 C 288.941406 210.703125 288.941406 211.136719 288.941406 211.570312 C 290.386719 206.90625 291.539062 202.140625 292.40625 197.285156 C 292.117188 197.234375 291.828125 197.1875 291.539062 197.089844 C 290.195312 196.609375 288.992188 195.839844 288.027344 194.78125 C 286.730469 193.433594 285.527344 191.460938 284.421875 188.480469 C 284.132812 187.710938 283.941406 186.941406 283.652344 186.074219 C 283.363281 185.210938 283.121094 184.246094 282.882812 183.238281 C 282.640625 182.226562 282.449219 181.167969 282.207031 180.011719 C 281.96875 178.859375 281.824219 177.609375 281.582031 176.308594 C 284.757812 177.175781 287.644531 178.957031 289.808594 181.457031 C 290.675781 182.515625 291.445312 183.71875 291.972656 184.96875 C 292.503906 186.121094 292.9375 187.324219 293.175781 188.625 C 293.273438 189.105469 293.320312 189.585938 293.417969 190.019531 C 293.417969 189.777344 293.464844 189.539062 293.511719 189.296875 C 293.996094 184.632812 294.1875 179.964844 294.136719 175.300781 C 293.851562 175.300781 293.5625 175.300781 293.273438 175.25 C 291.878906 175.058594 290.53125 174.480469 289.425781 173.617188 C 288.558594 172.992188 287.789062 172.269531 287.113281 171.449219 C 286.203125 170.394531 285.429688 169.238281 284.710938 168.035156 C 284.324219 167.363281 283.890625 166.59375 283.507812 165.824219 C 283.074219 165.003906 282.691406 164.140625 282.257812 163.175781 C 281.824219 162.214844 281.4375 161.203125 281.003906 160.097656 C 280.574219 158.992188 280.140625 157.835938 279.707031 156.585938 C 287.402344 157.308594 291.492188 162.023438 293.367188 166.496094 C 293.5625 166.929688 293.707031 167.363281 293.851562 167.792969 C 293.511719 163.371094 292.9375 158.992188 292.117188 154.613281 C 292.023438 154.132812 291.925781 153.699219 291.828125 153.21875 C 291.539062 153.265625 291.253906 153.316406 290.964844 153.316406 C 289.570312 153.363281 288.125 153.074219 286.875 152.449219 C 285.914062 152.015625 285.046875 151.4375 284.230469 150.765625 C 283.121094 149.898438 282.113281 148.9375 281.246094 147.878906 C 279.128906 145.523438 276.867188 142.203125 274.175781 137.679688 C 275.90625 137.488281 277.6875 137.535156 279.417969 137.875 C 280.910156 138.160156 282.351562 138.644531 283.699219 139.363281 C 284.902344 140.039062 286.058594 140.855469 287.019531 141.816406 C 287.933594 142.730469 288.75 143.695312 289.472656 144.753906 C 289.710938 145.183594 289.953125 145.570312 290.195312 146.003906 C 288.894531 141.242188 287.308594 136.574219 285.382812 132.050781 C 285.09375 132.148438 284.855469 132.246094 284.566406 132.339844 C 283.21875 132.679688 281.777344 132.679688 280.429688 132.292969 C 278.601562 131.859375 276.53125 130.851562 273.984375 128.972656 C 271.433594 127.097656 268.59375 124.308594 265.035156 120.507812 C 266.71875 119.976562 268.449219 119.640625 270.230469 119.640625 C 271.769531 119.59375 273.261719 119.785156 274.703125 120.21875 C 277.253906 120.988281 279.5625 122.382812 281.4375 124.308594 C 281.777344 124.644531 282.113281 124.980469 282.402344 125.367188 C 281.824219 124.257812 281.246094 123.152344 280.667969 122.046875 C 278.9375 118.824219 276.964844 115.695312 274.894531 112.714844 C 274.65625 112.90625 274.414062 113.050781 274.125 113.195312 C 272.875 113.820312 271.480469 114.109375 270.039062 114.011719 C 268.980469 113.964844 267.921875 113.820312 266.910156 113.582031 C 265.613281 113.195312 264.3125 112.761719 263.0625 112.183594 C 260.222656 110.933594 256.808594 108.867188 252.574219 106.027344 C 254.066406 105.113281 255.703125 104.390625 257.386719 103.960938 C 258.828125 103.574219 260.367188 103.429688 261.859375 103.527344 C 263.207031 103.621094 264.554688 103.863281 265.851562 104.296875 C 267.054688 104.730469 268.210938 105.304688 269.269531 105.980469 C 269.652344 106.269531 270.039062 106.507812 270.421875 106.796875 C 267.246094 102.851562 263.785156 99.195312 260.03125 95.828125 C 259.792969 95.78125 259.550781 95.734375 259.308594 95.683594 C 258.636719 95.492188 257.820312 95.300781 256.90625 94.964844 C 256.472656 94.820312 255.992188 94.625 255.460938 94.386719 C 254.933594 94.144531 254.402344 93.953125 253.875 93.664062 C 251.179688 92.316406 248.582031 90.683594 246.226562 88.804688 C 242.714844 86.015625 239.347656 82.984375 236.171875 79.808594 C 240.886719 79.808594 245.550781 80.867188 249.832031 82.890625 C 252.816406 84.285156 255.460938 86.304688 257.625 88.757812 C 258.058594 89.238281 258.445312 89.71875 258.78125 90.199219 C 259.117188 90.683594 259.40625 91.164062 259.648438 91.597656 C 260.078125 92.316406 260.464844 93.085938 260.753906 93.90625 C 260.851562 94.195312 260.945312 94.433594 261.042969 94.675781 C 262.582031 96.070312 264.074219 97.464844 265.515625 98.957031 C 265.273438 98.523438 264.988281 98.089844 264.746094 97.609375 C 264.167969 96.453125 263.640625 95.253906 263.160156 94 C 262.675781 92.65625 262.292969 91.210938 262.003906 89.816406 C 261.378906 86.402344 261.570312 82.9375 262.484375 79.570312 C 267.441406 84.332031 270.132812 88.613281 271.527344 92.027344 C 272.925781 95.445312 273.117188 98.042969 272.828125 99.917969 C 272.636719 101.363281 272.058594 102.660156 271.097656 103.765625 C 270.902344 104.007812 270.664062 104.199219 270.421875 104.390625 C 273.644531 108.242188 276.582031 112.328125 279.179688 116.5625 C 279.035156 116.082031 278.890625 115.601562 278.746094 115.121094 C 277.492188 110.308594 276.917969 104.007812 280.765625 97.175781 C 284.375 102.902344 286.007812 107.617188 286.632812 111.222656 C 286.875 112.761719 286.972656 114.351562 286.875 115.890625 C 286.777344 116.996094 286.539062 118.101562 286.152344 119.160156 C 285.671875 120.507812 284.804688 121.660156 283.652344 122.527344 C 283.410156 122.71875 283.121094 122.863281 282.882812 123.007812 C 285.191406 127.433594 287.210938 132.050781 288.894531 136.71875 C 288.847656 136.238281 288.800781 135.757812 288.75 135.226562 C 288.511719 130.273438 289.28125 124.019531 294.523438 118.148438 C 296.832031 124.453125 297.410156 129.359375 297.265625 133.015625 C 297.121094 136.671875 296.207031 139.074219 295.148438 140.664062 C 294.378906 141.867188 293.320312 142.875 292.023438 143.453125 C 291.734375 143.597656 291.445312 143.695312 291.15625 143.742188 C 292.117188 147.15625 292.984375 150.621094 293.65625 154.132812 C 293.945312 155.527344 294.136719 156.921875 294.378906 158.316406 C 294.425781 157.835938 294.476562 157.355469 294.570312 156.875 C 295.292969 151.96875 297.265625 146.003906 303.617188 141.289062 C 304.578125 147.878906 304.191406 152.785156 303.375 156.347656 C 303.039062 157.886719 302.507812 159.328125 301.789062 160.722656 C 301.257812 161.734375 300.632812 162.648438 299.863281 163.464844 C 298.902344 164.523438 297.601562 165.292969 296.207031 165.628906 C 295.917969 165.679688 295.628906 165.726562 295.292969 165.773438 C 295.726562 170.730469 295.871094 175.730469 295.726562 180.734375 C 295.820312 180.253906 295.964844 179.820312 296.160156 179.339844 C 297.023438 176.742188 298.324219 174.242188 300.007812 172.078125 C 302.125 169.382812 304.816406 167.21875 307.945312 165.773438 C 307.65625 172.414062 306.40625 177.128906 304.867188 180.445312 C 304.242188 181.890625 303.472656 183.238281 302.507812 184.4375 C 301.835938 185.304688 301.019531 186.121094 300.105469 186.796875 C 298.949219 187.664062 297.554688 188.144531 296.160156 188.238281 C 295.871094 188.238281 295.535156 188.238281 295.246094 188.191406 C 295.195312 188.527344 295.195312 188.863281 295.148438 189.203125 C 294.667969 193.867188 293.945312 198.484375 292.886719 203.007812 C 293.128906 202.574219 293.320312 202.140625 293.5625 201.710938 C 294.667969 199.542969 296.398438 197.332031 298.421875 195.503906 Z M 298.421875 195.503906 "/></g><path style=" stroke:none;fill-rule:evenodd;fill:#ffffff;fill-opacity:1;" d="M 212.714844 154.921875 C 212.898438 154.730469 213.097656 154.542969 213.136719 154.492188 C 213.757812 153.726562 214.269531 152.863281 214.65625 151.957031 C 215.714844 149.484375 215.886719 146.957031 215.542969 144.308594 C 215.441406 143.511719 215.304688 142.71875 215.183594 141.925781 C 215.167969 141.828125 215.148438 141.261719 215.03125 141.222656 C 214.941406 141.195312 214.675781 141.941406 214.652344 142 C 214.269531 142.925781 213.863281 143.84375 213.417969 144.738281 C 212.183594 147.226562 210.988281 149.820312 210.824219 152.640625 C 210.769531 153.597656 210.8125 154.917969 211.550781 155.675781 C 210.792969 160.664062 211.746094 165.609375 211.972656 170.609375 C 211.871094 170.148438 211.757812 169.691406 211.632812 169.234375 C 210.507812 165.222656 208.332031 161.851562 205.226562 159.101562 C 204.554688 158.507812 203.871094 157.929688 203.167969 157.371094 C 203.085938 157.308594 202.609375 156.839844 202.5 156.914062 C 202.34375 157.019531 202.578125 157.949219 202.601562 158.101562 C 202.800781 159.402344 203.042969 160.695312 203.242188 161.992188 C 203.886719 166.164062 206.085938 169.785156 208.9375 172.8125 C 209.652344 173.570312 210.789062 174.964844 211.898438 175.339844 C 211.5 179.824219 210.136719 184.058594 208.085938 188.042969 C 208.21875 187.457031 208.339844 186.863281 208.449219 186.273438 C 208.910156 183.777344 209.410156 180.46875 208.4375 177.949219 C 208.59375 177.859375 208.738281 177.738281 208.859375 177.589844 C 209.40625 176.933594 209.3125 175.957031 208.65625 175.410156 C 207.996094 174.867188 207.019531 174.957031 206.472656 175.617188 C 205.929688 176.277344 206.019531 177.253906 206.679688 177.796875 C 206.898438 177.980469 207.152344 178.089844 207.417969 178.132812 C 208.4375 180.5 207.890625 183.695312 207.449219 186.085938 C 207.386719 186.40625 207.324219 186.730469 207.257812 187.050781 C 207.453125 183.84375 207.089844 180.523438 205.800781 177.570312 C 205.625 177.167969 204.730469 174.75 204.085938 174.769531 C 203.917969 174.773438 203.890625 175.640625 203.875 175.757812 C 203.710938 176.863281 203.425781 177.957031 203.132812 179.035156 C 202.113281 182.761719 202.152344 186.167969 203.578125 189.832031 C 203.988281 190.886719 204.867188 191.75 205.292969 192.769531 C 204.082031 194.644531 202.828125 196.488281 201.609375 198.351562 C 201.601562 198.035156 201.585938 197.714844 201.574219 197.394531 C 201.480469 195.476562 201.152344 193.605469 200.457031 191.816406 C 200.441406 191.773438 200.417969 191.734375 200.394531 191.699219 C 200.429688 191.664062 200.464844 191.625 200.496094 191.585938 C 201.042969 190.925781 200.949219 189.949219 200.289062 189.402344 C 199.632812 188.859375 198.65625 188.949219 198.109375 189.609375 C 197.5625 190.269531 197.65625 191.246094 198.316406 191.789062 C 198.65625 192.074219 199.085938 192.183594 199.492188 192.132812 C 199.496094 192.152344 199.503906 192.167969 199.507812 192.183594 C 200.164062 193.871094 200.472656 195.636719 200.554688 197.441406 C 200.585938 198.074219 200.609375 198.703125 200.617188 199.332031 C 200.617188 199.425781 200.5625 199.558594 200.53125 199.679688 C 200.484375 199.851562 200.453125 200.011719 200.457031 200.132812 L 200.457031 200.148438 C 199.320312 201.953125 198.242188 203.792969 197.292969 205.710938 C 196.695312 206.914062 197.617188 207.347656 198.203125 206.164062 C 199.042969 204.46875 199.980469 202.839844 200.972656 201.242188 C 201.308594 201.09375 201.675781 200.953125 201.707031 200.941406 C 203.242188 200.386719 204.933594 200.113281 206.554688 199.949219 C 210.363281 199.566406 213.328125 198.292969 215.519531 195.035156 C 215.851562 194.539062 217.222656 192.75 216.996094 192.054688 C 216.980469 192.003906 216.113281 192.375 216.050781 192.398438 C 214.960938 192.796875 213.882812 193.207031 212.808594 193.644531 C 210.351562 194.644531 207.96875 195.742188 205.578125 196.886719 C 204.621094 197.347656 203.707031 197.746094 202.875 198.273438 C 204.308594 196.101562 205.777344 193.949219 207.15625 191.734375 C 208.660156 189.316406 209.929688 186.804688 210.902344 184.195312 C 211.203125 184.210938 211.710938 184.3125 211.914062 184.304688 C 212.871094 184.257812 213.820312 184.089844 214.746094 183.84375 C 218.671875 182.792969 221.984375 180.058594 224.21875 176.714844 C 224.945312 175.625 225.628906 174.492188 226.1875 173.304688 C 226.265625 173.144531 226.695312 172.382812 226.484375 172.195312 C 226.382812 172.101562 225.640625 172.789062 225.550781 172.855469 C 224.582031 173.570312 223.5 174.082031 222.449219 174.664062 C 219.15625 176.5 215.777344 178.472656 212.953125 181.03125 C 213.285156 180.429688 213.617188 179.835938 213.964844 179.246094 C 215.546875 176.570312 217.195312 174.046875 219.636719 172.085938 C 219.644531 172.082031 219.652344 172.074219 219.660156 172.066406 C 220.308594 172.476562 221.179688 172.351562 221.683594 171.746094 C 222.226562 171.085938 222.132812 170.109375 221.476562 169.5625 C 220.816406 169.019531 219.839844 169.109375 219.292969 169.769531 C 218.933594 170.203125 218.851562 170.777344 219.027344 171.273438 C 219.019531 171.277344 219.007812 171.285156 219 171.292969 C 216.460938 173.332031 214.734375 175.945312 213.089844 178.730469 C 212.722656 179.347656 212.371094 179.980469 212.023438 180.609375 C 212.625 178.246094 212.976562 175.808594 213.027344 173.292969 C 213.070312 171.324219 212.929688 169.367188 212.757812 167.414062 C 212.808594 167.292969 212.894531 166.988281 212.972656 166.871094 C 213.214844 166.5 213.484375 166.136719 213.773438 165.796875 C 214.601562 164.832031 215.5625 163.992188 216.523438 163.164062 C 219.675781 160.457031 222.097656 157.871094 223.515625 153.855469 C 223.835938 152.945312 224.113281 152.015625 224.269531 151.066406 C 224.289062 150.949219 224.46875 150.230469 224.351562 150.132812 C 224.300781 150.089844 223.46875 150.914062 223.410156 150.964844 C 222.390625 151.84375 221.3125 152.660156 220.25 153.484375 C 217.800781 155.390625 216.324219 157.859375 214.800781 160.515625 C 214.371094 161.261719 213.960938 161.957031 213.59375 162.636719 C 213.738281 161.863281 213.90625 161.097656 214.113281 160.339844 C 214.972656 157.191406 216.148438 154.164062 217.925781 151.425781 C 218.496094 151.582031 219.128906 151.402344 219.527344 150.917969 C 220.074219 150.261719 219.980469 149.28125 219.320312 148.738281 C 218.664062 148.191406 217.683594 148.285156 217.140625 148.945312 C 216.675781 149.503906 216.671875 150.292969 217.085938 150.851562 C 215.246094 153.683594 214.023438 156.816406 213.132812 160.070312 C 212.828125 161.1875 212.605469 162.320312 212.414062 163.460938 C 212.207031 160.617188 212.148438 157.777344 212.714844 154.921875 Z M 212.714844 154.921875 "/><g clip-rule="nonzero" clip-path="url(#ea0bdfcc1a)"><path style=" stroke:none;fill-rule:nonzero;fill:#ffffff;fill-opacity:1;" d="M 202.109375 203.84375 L 195.375 201.386719 L 193.519531 206.007812 L 166.75 145.785156 C 165.5625 143.109375 164.917969 140.976562 164.820312 139.390625 C 164.820312 137.109375 165.761719 135.671875 167.644531 135.078125 C 169.628906 134.582031 172.453125 134.335938 176.117188 134.335938 L 176.117188 131.359375 L 136.710938 131.359375 L 136.710938 134.335938 C 140.183594 134.335938 142.863281 135.128906 144.746094 136.714844 C 146.429688 138.199219 148.015625 140.382812 149.5 143.257812 L 189.207031 231.433594 L 191.136719 231.433594 Z M 218.417969 142.324219 L 225.535156 144.925781 C 227.203125 140.726562 228.925781 137.941406 230.691406 136.566406 C 232.675781 135.078125 235.101562 134.335938 237.976562 134.335938 L 237.976562 131.359375 L 207.496094 131.359375 L 207.496094 134.335938 C 214.832031 134.335938 218.496094 136.566406 218.496094 141.027344 C 218.496094 141.4375 218.472656 141.871094 218.417969 142.324219 Z M 218.417969 142.324219 "/></g></g></svg>