<svg xmlns="http://www.w3.org/2000/svg" xmlns:xlink="http://www.w3.org/1999/xlink" width="500" zoomAndPan="magnify" viewBox="0 0 375 374.999991" height="500" preserveAspectRatio="xMidYMid meet" version="1.2"><defs><clipPath id="dfc03a4b68"><path d="M 121.875 112.5 L 253.125 112.5 L 253.125 262.5 L 121.875 262.5 Z M 121.875 112.5 "/></clipPath><clipPath id="cd73097dfe"><path d="M 66.9375 79.445312 L 308.4375 79.445312 L 308.4375 295.445312 L 66.9375 295.445312 Z M 66.9375 79.445312 "/></clipPath><clipPath id="d11bd0e5f9"><path d="M 136.703125 131.296875 L 237.953125 131.296875 L 237.953125 231.796875 L 136.703125 231.796875 Z M 136.703125 131.296875 "/></clipPath></defs><g id="0d57c7673a"><g clip-rule="nonzero" clip-path="url(#dfc03a4b68)"><path style=" stroke:none;fill-rule:nonzero;fill:#000000;fill-opacity:1;" d="M 251.25 112.5 L 123.75 112.5 C 122.714844 112.5 121.875 113.339844 121.875 114.375 L 121.875 188.863281 C 121.875 212.066406 134.53125 233.480469 154.910156 244.746094 L 186.59375 262.265625 C 186.875 262.421875 187.1875 262.5 187.5 262.5 C 187.8125 262.5 188.125 262.421875 188.40625 262.265625 L 220.089844 244.746094 C 240.46875 233.480469 253.125 212.066406 253.125 188.863281 L 253.125 114.375 C 253.125 113.339844 252.285156 112.5 251.25 112.5 Z M 249.375 188.863281 C 249.375 210.703125 237.457031 230.859375 218.277344 241.464844 L 187.5 258.484375 L 156.722656 241.464844 C 137.542969 230.859375 125.625 210.703125 125.625 188.863281 L 125.625 116.25 L 249.375 116.25 Z M 249.375 188.863281 "/></g><g clip-rule="nonzero" clip-path="url(#cd73097dfe)"><path style=" stroke:none;fill-rule:nonzero;fill:#000000;fill-opacity:1;" d="M 298.894531 195.503906 C 301.449219 193.242188 304.53125 191.605469 307.859375 190.742188 C 307.472656 192.375 307.136719 193.867188 306.652344 195.214844 C 306.171875 196.5625 305.738281 197.859375 305.257812 198.96875 C 304.386719 200.9375 303.375 202.816406 302.171875 204.59375 C 301.253906 205.894531 300.242188 207.046875 299.085938 208.105469 C 298.652344 208.492188 298.121094 208.875 297.640625 209.214844 C 297.207031 209.503906 296.722656 209.742188 296.242188 209.984375 C 294.941406 210.609375 293.496094 210.847656 292.046875 210.65625 C 291.757812 210.609375 291.46875 210.558594 291.179688 210.464844 C 289.878906 214.839844 288.335938 219.171875 286.503906 223.40625 C 286.3125 223.789062 286.167969 224.175781 285.972656 224.558594 C 286.265625 224.175781 286.601562 223.789062 286.9375 223.355469 C 287.277344 222.921875 287.804688 222.441406 288.238281 221.960938 C 288.675781 221.480469 289.15625 221 289.6875 220.566406 C 290.796875 219.605469 291.953125 218.785156 293.207031 218.015625 C 296.144531 216.285156 299.519531 215.226562 302.941406 215.035156 C 302.316406 216.476562 301.640625 217.871094 300.871094 219.21875 C 300.53125 219.84375 300.195312 220.46875 299.855469 221.046875 C 299.519531 221.625 299.132812 222.152344 298.796875 222.683594 C 298.074219 223.691406 297.398438 224.65625 296.722656 225.472656 C 296 226.289062 295.324219 227.011719 294.652344 227.636719 C 292.046875 230.1875 289.636719 231.292969 287.804688 231.773438 C 286.410156 232.160156 284.960938 232.113281 283.5625 231.628906 C 283.273438 231.535156 282.984375 231.390625 282.746094 231.246094 C 281.347656 233.890625 279.851562 236.441406 278.261719 238.941406 C 277.152344 240.675781 275.996094 242.308594 274.792969 243.945312 C 275.175781 243.65625 275.5625 243.320312 275.949219 243.03125 C 279.851562 240 285.492188 237.113281 293.300781 238.078125 C 291.613281 240.480469 289.734375 242.695312 287.660156 244.761719 C 286.121094 246.253906 284.382812 247.601562 282.550781 248.804688 C 281.203125 249.621094 279.804688 250.296875 278.308594 250.824219 C 277.203125 251.160156 276.09375 251.355469 274.9375 251.402344 C 273.488281 251.449219 272.09375 251.113281 270.839844 250.34375 C 270.597656 250.199219 270.355469 250.007812 270.117188 249.8125 C 269.246094 250.824219 268.332031 251.882812 267.417969 252.84375 C 264.910156 255.539062 262.304688 258.089844 259.511719 260.445312 C 259.945312 260.203125 260.425781 260.011719 260.859375 259.773438 C 265.441406 257.800781 271.511719 256.117188 278.984375 258.761719 C 273.972656 263.332031 269.441406 265.6875 265.96875 266.941406 C 264.476562 267.46875 262.933594 267.757812 261.34375 267.949219 C 260.1875 268.046875 259.078125 267.949219 257.921875 267.710938 C 256.523438 267.421875 255.21875 266.746094 254.207031 265.738281 C 254.015625 265.496094 253.773438 265.257812 253.628906 265.015625 C 249.582031 267.949219 245.242188 270.546875 240.710938 272.710938 C 241.195312 272.617188 241.675781 272.519531 242.207031 272.421875 C 247.121094 271.652344 253.4375 271.507812 260.136719 275.886719 C 254.0625 279.207031 249.003906 280.3125 245.339844 280.648438 C 243.75 280.746094 242.15625 280.699219 240.566406 280.457031 C 239.457031 280.265625 238.347656 279.878906 237.335938 279.351562 C 236.035156 278.726562 234.976562 277.714844 234.253906 276.464844 C 234.109375 276.175781 233.964844 275.933594 233.867188 275.597656 C 230.105469 276.992188 226.25 278.101562 222.296875 278.871094 C 216.511719 280.023438 210.632812 280.554688 204.703125 280.410156 L 204.605469 280.410156 C 201.8125 280.359375 198.917969 280.3125 196.125 280.746094 C 193.761719 281.128906 191.496094 281.851562 189.375 282.910156 C 191.496094 284.257812 193.472656 285.796875 195.304688 287.527344 L 196.894531 289.066406 C 197.230469 289.453125 197.570312 289.789062 197.90625 290.175781 L 198.386719 290.75 C 199.207031 291.617188 199.980469 292.578125 200.75 293.492188 L 201.28125 294.121094 C 201.570312 294.457031 201.523438 294.9375 201.183594 295.175781 C 201.039062 295.273438 200.894531 295.371094 200.703125 295.371094 C 200.460938 295.371094 200.269531 295.273438 200.125 295.082031 L 199.59375 294.457031 C 198.871094 293.542969 198.097656 292.628906 197.328125 291.808594 L 196.796875 291.234375 C 196.460938 290.894531 196.171875 290.511719 195.832031 290.175781 L 194.292969 288.683594 C 192.363281 286.808594 190.195312 285.171875 187.878906 283.777344 C 185.566406 285.171875 183.398438 286.808594 181.421875 288.683594 L 179.878906 290.175781 C 179.589844 290.511719 179.25 290.847656 178.960938 291.183594 L 178.433594 291.761719 C 177.613281 292.628906 176.890625 293.542969 176.167969 294.40625 L 175.636719 295.035156 C 175.492188 295.226562 175.25 295.320312 175.058594 295.320312 C 174.625 295.320312 174.285156 294.984375 174.285156 294.550781 C 174.285156 294.359375 174.335938 294.214844 174.480469 294.070312 L 175.011719 293.445312 C 175.734375 292.53125 176.503906 291.570312 177.371094 290.703125 L 177.855469 290.175781 C 178.191406 289.835938 178.480469 289.453125 178.816406 289.117188 L 180.410156 287.578125 C 182.242188 285.84375 184.214844 284.304688 186.289062 282.910156 C 184.167969 281.851562 181.902344 281.128906 179.542969 280.746094 C 176.746094 280.3125 173.851562 280.359375 171.058594 280.410156 L 170.960938 280.410156 C 165.078125 280.554688 159.152344 280.023438 153.367188 278.871094 C 152.449219 278.675781 151.582031 278.484375 150.667969 278.292969 C 150.617188 278.582031 150.523438 278.871094 150.378906 279.160156 C 149.847656 280.503906 148.882812 281.613281 147.679688 282.382812 C 146.714844 283.007812 145.652344 283.535156 144.59375 283.871094 C 142.039062 284.546875 139.4375 284.785156 136.785156 284.546875 C 135.578125 284.449219 134.375 284.304688 133.21875 284.113281 C 131.964844 283.871094 130.566406 283.535156 129.121094 283.152344 C 127.675781 282.71875 126.179688 282.140625 124.539062 281.515625 C 125.9375 280.3125 127.53125 279.351562 129.167969 278.53125 C 129.890625 278.148438 130.664062 277.859375 131.433594 277.570312 C 132.15625 277.28125 132.929688 277.042969 133.699219 276.847656 C 135.097656 276.511719 136.542969 276.273438 137.988281 276.175781 C 139.292969 276.03125 140.640625 276.03125 141.941406 276.128906 C 142.472656 276.128906 142.953125 276.175781 143.4375 276.222656 C 141.074219 275.40625 138.761719 274.492188 136.496094 273.480469 C 134.179688 272.472656 131.964844 271.316406 129.746094 270.019531 C 129.601562 270.308594 129.410156 270.546875 129.214844 270.789062 C 128.300781 271.894531 127.09375 272.710938 125.746094 273.144531 C 124.636719 273.480469 123.527344 273.675781 122.371094 273.722656 C 120.78125 273.722656 119.191406 273.53125 117.648438 273.195312 C 114.03125 272.328125 109.308594 270.402344 103.8125 266.3125 C 110.996094 262.945312 117.261719 264.003906 121.984375 265.542969 C 122.46875 265.6875 122.949219 265.882812 123.433594 266.027344 C 119.285156 263.1875 115.382812 259.964844 111.765625 256.453125 C 111.574219 256.691406 111.332031 256.886719 111.09375 257.078125 C 109.933594 257.945312 108.539062 258.425781 107.140625 258.519531 C 106.03125 258.570312 104.875 258.519531 103.765625 258.28125 C 102.222656 257.894531 100.777344 257.367188 99.332031 256.644531 C 98.414062 256.210938 97.546875 255.683594 96.726562 255.152344 C 95.8125 254.578125 94.847656 253.902344 93.835938 253.085938 C 92.824219 252.269531 91.859375 251.355469 90.796875 250.34375 C 89.738281 249.332031 88.726562 248.128906 87.570312 246.878906 C 95.28125 245.246094 101.160156 247.648438 105.355469 250.296875 C 105.789062 250.535156 106.222656 250.824219 106.65625 251.113281 C 103.332031 247.359375 100.292969 243.367188 97.546875 239.136719 C 97.304688 239.277344 97.015625 239.472656 96.777344 239.566406 C 95.472656 240.144531 93.980469 240.335938 92.582031 240.050781 C 90.703125 239.761719 88.242188 238.847656 85.398438 236.539062 C 82.554688 234.226562 79.277344 230.523438 76.046875 224.605469 C 83.90625 224.558594 89.160156 228.167969 92.679688 231.628906 C 93.0625 231.96875 93.402344 232.351562 93.691406 232.6875 C 92.003906 229.65625 90.460938 226.484375 89.0625 223.261719 C 88.484375 221.863281 87.90625 220.46875 87.375 219.074219 C 87.085938 219.171875 86.796875 219.265625 86.507812 219.316406 C 85.109375 219.605469 83.617188 219.507812 82.265625 218.980469 C 81.207031 218.59375 80.242188 218.015625 79.324219 217.34375 C 78.074219 216.429688 76.914062 215.324219 75.953125 214.070312 C 75.375 213.351562 74.792969 212.582031 74.214844 211.667969 C 73.925781 211.234375 73.636719 210.753906 73.300781 210.273438 C 72.964844 209.789062 72.722656 209.261719 72.433594 208.683594 C 71.855469 207.578125 71.277344 206.375 70.699219 205.027344 C 70.117188 203.679688 69.636719 202.238281 69.15625 200.652344 C 76.964844 202.09375 81.253906 206.664062 84.097656 210.753906 C 84.386719 211.1875 84.675781 211.667969 84.917969 212.101562 C 83.421875 207.289062 82.21875 202.382812 81.351562 197.425781 C 81.0625 197.476562 80.773438 197.523438 80.433594 197.523438 C 78.988281 197.523438 77.589844 197.140625 76.386719 196.371094 C 74.746094 195.40625 72.867188 193.628906 71.132812 190.40625 C 70.648438 189.539062 70.214844 188.625 69.828125 187.710938 C 69.445312 186.699219 69.058594 185.640625 68.671875 184.4375 C 68.480469 183.863281 68.289062 183.238281 68.140625 182.5625 C 67.996094 181.890625 67.851562 181.214844 67.707031 180.542969 C 67.417969 179.148438 67.128906 177.609375 66.9375 175.972656 C 70.167969 177.175781 73.058594 179.097656 75.375 181.648438 C 76.335938 182.707031 77.203125 183.863281 77.976562 185.113281 C 78.652344 186.21875 79.230469 187.421875 79.757812 188.625 C 79.953125 189.105469 80.144531 189.539062 80.289062 190.019531 C 80.242188 189.777344 80.242188 189.492188 80.195312 189.25 C 79.710938 184.535156 79.519531 179.820312 79.566406 175.058594 C 79.277344 175.058594 78.941406 175.058594 78.652344 175.011719 C 77.253906 174.769531 75.902344 174.097656 74.84375 173.132812 C 74.023438 172.363281 73.300781 171.5 72.722656 170.535156 C 71.902344 169.238281 71.277344 167.792969 70.792969 166.304688 C 70.503906 165.4375 70.261719 164.476562 70.023438 163.417969 C 69.78125 162.359375 69.636719 161.253906 69.492188 160 C 69.347656 158.65625 69.25 157.308594 69.25 155.960938 C 69.203125 154.421875 69.25 152.882812 69.347656 151.34375 C 76.046875 155.527344 78.507812 161.347656 79.613281 166.160156 C 79.710938 166.640625 79.808594 167.121094 79.902344 167.601562 C 80.242188 163.082031 80.820312 158.605469 81.6875 154.179688 C 81.785156 153.699219 81.878906 153.21875 81.976562 152.785156 C 81.6875 152.738281 81.398438 152.640625 81.0625 152.546875 C 79.710938 152.0625 78.554688 151.152344 77.6875 149.996094 C 77.011719 149.082031 76.480469 148.121094 76.046875 147.0625 C 75.519531 145.617188 75.132812 144.078125 74.9375 142.539062 C 74.503906 138.933594 74.648438 133.976562 76.433594 127.53125 C 77.785156 128.78125 78.941406 130.175781 79.953125 131.667969 C 80.820312 133.015625 81.542969 134.457031 82.121094 135.949219 C 82.652344 137.296875 82.988281 138.691406 83.230469 140.132812 C 83.472656 141.433594 83.617188 142.730469 83.617188 144.03125 C 83.617188 144.511719 83.617188 144.992188 83.617188 145.472656 C 84.917969 140.664062 86.554688 135.949219 88.484375 131.332031 C 88.195312 131.234375 87.953125 131.089844 87.664062 130.945312 C 86.410156 130.175781 85.449219 129.070312 84.871094 127.769531 C 84.050781 126.085938 83.421875 123.539062 83.710938 119.882812 C 84 116.226562 85.160156 111.414062 88.242188 105.402344 C 89.304688 106.894531 90.171875 108.527344 90.847656 110.210938 C 91.425781 111.703125 91.808594 113.242188 92.050781 114.832031 C 92.4375 117.574219 92.390625 120.363281 91.859375 123.058594 C 91.761719 123.539062 91.664062 124.019531 91.570312 124.5 C 92.148438 123.34375 92.726562 122.191406 93.351562 121.085938 C 95.136719 117.8125 97.113281 114.636719 99.234375 111.609375 C 98.992188 111.414062 98.75 111.269531 98.511719 111.03125 C 97.449219 110.019531 96.726562 108.769531 96.4375 107.328125 C 96.195312 106.21875 96.101562 105.113281 96.148438 103.960938 C 96.246094 102.371094 96.535156 100.832031 97.015625 99.339844 C 98.125 95.828125 100.292969 91.308594 104.777344 86.113281 C 105.453125 87.796875 105.933594 89.574219 106.175781 91.402344 C 106.417969 92.992188 106.417969 94.625 106.320312 96.214844 C 106.222656 97.65625 105.980469 99.101562 105.597656 100.496094 C 105.257812 101.792969 104.875 102.996094 104.34375 104.246094 C 104.152344 104.730469 103.957031 105.160156 103.765625 105.59375 C 106.996094 101.601562 110.5625 97.898438 114.371094 94.433594 C 114.464844 94.195312 114.515625 93.953125 114.660156 93.664062 C 114.996094 92.894531 115.382812 92.125 115.816406 91.355469 C 116.058594 90.921875 116.394531 90.441406 116.683594 89.960938 C 116.972656 89.480469 117.40625 89 117.839844 88.515625 C 120.007812 86.0625 122.660156 84.042969 125.648438 82.648438 C 129.941406 80.578125 134.617188 79.523438 139.339844 79.570312 C 136.351562 83.035156 132.976562 86.015625 129.457031 88.804688 C 127.09375 90.683594 124.492188 92.316406 121.792969 93.664062 C 121.214844 93.953125 120.683594 94.144531 120.203125 94.386719 C 119.71875 94.625 119.238281 94.820312 118.757812 94.964844 C 117.839844 95.300781 117.019531 95.492188 116.347656 95.683594 C 116.058594 95.734375 115.816406 95.828125 115.625 95.828125 C 114.128906 97.175781 112.730469 98.523438 111.332031 99.964844 C 111.71875 99.726562 112.105469 99.535156 112.488281 99.339844 C 113.597656 98.765625 114.804688 98.28125 116.058594 97.992188 C 117.40625 97.65625 118.757812 97.511719 120.152344 97.5625 C 123 97.65625 126.082031 98.714844 129.167969 100.976562 C 124.683594 103.382812 121.117188 105.015625 118.179688 106.027344 C 115.914062 106.894531 113.503906 107.277344 111.042969 107.183594 C 109.644531 107.132812 108.246094 106.703125 107.042969 105.980469 C 106.800781 105.835938 106.5625 105.644531 106.367188 105.449219 C 103.234375 109.203125 100.34375 113.195312 97.789062 117.378906 C 98.125 117.042969 98.460938 116.753906 98.800781 116.464844 C 102.511719 113.292969 108.394531 111.078125 115.476562 114.15625 C 111.476562 117.667969 108.394531 120.171875 105.691406 121.804688 C 104.535156 122.574219 103.28125 123.203125 102.03125 123.683594 C 101.066406 124.066406 100.054688 124.355469 98.992188 124.546875 C 97.59375 124.789062 96.148438 124.691406 94.800781 124.257812 C 94.511719 124.164062 94.269531 124.066406 94.027344 123.921875 C 91.761719 128.253906 89.785156 132.773438 88.097656 137.390625 C 88.339844 137.007812 88.628906 136.621094 88.917969 136.238281 C 91.90625 132.390625 97.160156 128.972656 104.777344 130.464844 C 101.742188 134.746094 99.136719 137.824219 96.871094 140.039062 C 95.136719 141.769531 93.113281 143.164062 90.847656 144.128906 C 89.546875 144.65625 88.097656 144.847656 86.699219 144.65625 C 86.410156 144.609375 86.121094 144.558594 85.832031 144.464844 C 84.871094 147.832031 84.050781 151.246094 83.375 154.710938 C 83.132812 156.105469 82.894531 157.5 82.652344 158.847656 C 82.84375 158.414062 83.039062 157.980469 83.230469 157.546875 C 84.433594 155.144531 86.171875 153.074219 88.386719 151.535156 C 90.703125 149.898438 93.835938 148.792969 97.644531 148.695312 C 95.472656 153.554688 93.59375 157.117188 91.761719 159.714844 C 90.941406 160.867188 90.074219 161.925781 89.109375 162.886719 C 88.339844 163.65625 87.519531 164.28125 86.605469 164.859375 C 85.398438 165.628906 84.050781 166.0625 82.652344 166.160156 C 82.363281 166.160156 82.074219 166.160156 81.785156 166.160156 C 81.351562 171.066406 81.207031 175.972656 81.351562 180.878906 C 81.445312 180.445312 81.589844 179.964844 81.6875 179.53125 C 82.410156 176.984375 83.761719 174.625 85.59375 172.652344 C 87.953125 170.34375 90.941406 168.757812 94.171875 168.132812 C 92.96875 173.328125 91.761719 177.175781 90.414062 180.0625 C 89.835938 181.3125 89.160156 182.5625 88.386719 183.71875 C 87.808594 184.582031 87.085938 185.402344 86.316406 186.121094 C 85.304688 187.085938 84.050781 187.808594 82.652344 188.144531 C 82.363281 188.191406 82.074219 188.238281 81.785156 188.289062 C 81.832031 188.625 81.832031 188.960938 81.878906 189.25 C 82.316406 193.820312 83.085938 198.339844 84.097656 202.816406 C 84.097656 202.335938 84.144531 201.902344 84.195312 201.421875 C 84.339844 200.167969 84.578125 198.917969 84.964844 197.667969 C 85.398438 196.371094 86.027344 195.117188 86.796875 193.964844 C 88.339844 191.558594 90.894531 189.441406 94.414062 187.949219 C 93.929688 198.582031 92.292969 204.066406 89.980469 207 C 89.160156 208.15625 88.050781 209.070312 86.75 209.644531 C 86.460938 209.789062 86.171875 209.886719 85.882812 209.933594 C 87.136719 214.265625 88.675781 218.546875 90.460938 222.683594 C 90.605469 223.019531 90.796875 223.355469 90.941406 223.691406 C 90.847656 223.261719 90.796875 222.777344 90.75 222.347656 C 90.703125 221.722656 90.652344 221.09375 90.652344 220.46875 C 90.652344 219.84375 90.703125 219.171875 90.796875 218.496094 C 90.941406 217.101562 91.328125 215.804688 91.859375 214.503906 C 93.207031 211.472656 95.378906 208.925781 98.222656 207.191406 C 98.367188 208.539062 98.605469 209.742188 98.703125 210.898438 C 98.800781 212.050781 98.898438 213.15625 98.992188 214.167969 C 99.089844 215.179688 99.089844 216.140625 99.089844 217.054688 C 99.089844 217.96875 99.136719 218.785156 99.089844 219.554688 C 98.894531 222.730469 98.367188 224.992188 97.546875 226.628906 C 96.96875 227.925781 96.050781 229.03125 94.894531 229.898438 C 94.65625 230.089844 94.414062 230.234375 94.125 230.378906 C 95.472656 232.976562 96.96875 235.527344 98.511719 237.980469 C 99.570312 239.664062 100.726562 241.300781 101.886719 242.886719 C 101.691406 242.453125 101.546875 242.019531 101.402344 241.589844 C 99.957031 236.921875 100.101562 230.714844 105.644531 225.28125 C 106.511719 227.78125 107.285156 229.898438 107.765625 231.917969 C 108.296875 233.652344 108.683594 235.382812 108.972656 237.164062 C 109.210938 238.507812 109.308594 239.90625 109.308594 241.25 C 109.308594 242.308594 109.210938 243.320312 108.972656 244.378906 C 108.683594 245.773438 108.007812 247.074219 107.089844 248.128906 C 106.898438 248.371094 106.65625 248.5625 106.464844 248.757812 C 107.332031 249.765625 108.199219 250.777344 109.117188 251.738281 C 111.527344 254.335938 114.128906 256.835938 116.828125 259.148438 C 116.585938 258.808594 116.296875 258.425781 116.105469 258.039062 C 115.480469 256.933594 114.949219 255.78125 114.515625 254.578125 C 114.082031 253.277344 113.886719 251.882812 113.839844 250.488281 C 113.792969 249.765625 113.839844 249.042969 113.9375 248.324219 C 114.03125 247.554688 114.175781 246.785156 114.417969 246.015625 C 114.898438 244.332031 115.671875 242.742188 116.636719 241.25 C 119.382812 245.675781 121.3125 248.996094 122.46875 251.929688 C 123 253.183594 123.433594 254.480469 123.722656 255.828125 C 123.960938 256.835938 124.105469 257.894531 124.105469 258.90625 C 124.15625 260.300781 123.816406 261.695312 123.191406 262.996094 C 123.046875 263.234375 122.902344 263.476562 122.710938 263.714844 C 126.660156 266.601562 130.902344 269.105469 135.339844 271.222656 C 135 270.933594 134.664062 270.644531 134.324219 270.308594 C 133.410156 269.394531 132.640625 268.429688 131.914062 267.371094 C 131.191406 266.21875 130.613281 264.917969 130.277344 263.621094 C 129.890625 262.175781 129.699219 260.636719 129.796875 259.148438 C 129.890625 257.414062 130.230469 255.683594 130.808594 254.046875 C 134.421875 257.605469 137.121094 260.300781 138.953125 262.851562 C 139.773438 263.910156 140.542969 265.0625 141.121094 266.265625 C 141.605469 267.179688 141.992188 268.140625 142.28125 269.152344 C 142.664062 270.5 142.761719 271.941406 142.472656 273.335938 C 142.425781 273.625 142.328125 273.914062 142.230469 274.15625 C 145.894531 275.503906 149.703125 276.609375 153.558594 277.378906 C 159.246094 278.484375 165.03125 279.015625 170.816406 278.871094 L 170.914062 278.871094 C 173.804688 278.820312 176.746094 278.773438 179.6875 279.207031 C 182.53125 279.640625 185.277344 280.601562 187.832031 281.949219 C 190.386719 280.554688 193.132812 279.640625 195.976562 279.207031 C 198.871094 278.820312 201.8125 278.726562 204.75 278.871094 L 204.847656 278.871094 C 210.632812 279.015625 216.417969 278.484375 222.105469 277.378906 C 222.972656 277.1875 223.839844 276.992188 224.757812 276.800781 C 224.707031 276.511719 224.660156 276.222656 224.613281 275.933594 C 224.515625 274.539062 224.707031 273.097656 225.285156 271.796875 C 225.671875 270.835938 226.152344 269.921875 226.78125 269.105469 C 227.550781 268 228.371094 266.941406 229.335938 265.976562 C 229.867188 265.449219 230.445312 264.824219 231.070312 264.246094 C 231.699219 263.667969 232.421875 263.042969 233.144531 262.417969 C 233.867188 261.792969 234.6875 261.070312 235.554688 260.398438 C 236.421875 259.722656 237.335938 258.90625 238.347656 258.183594 C 238.785156 259.867188 238.929688 261.648438 238.832031 263.378906 C 238.785156 264.148438 238.6875 264.917969 238.492188 265.6875 C 238.300781 266.410156 238.109375 267.085938 237.820312 267.757812 C 237.289062 269.054688 236.613281 270.210938 235.746094 271.316406 C 234.925781 272.28125 234.011719 273.195312 233.046875 274.011719 C 232.660156 274.300781 232.277344 274.539062 231.890625 274.78125 C 234.15625 274.011719 236.421875 273.097656 238.640625 272.136719 C 240.855469 271.171875 243.121094 269.96875 245.289062 268.769531 C 245.144531 268.527344 245 268.238281 244.90625 268 C 244.421875 266.652344 244.230469 265.257812 244.421875 263.859375 C 244.519531 262.851562 244.761719 261.792969 245.144531 260.832031 C 245.578125 259.53125 246.109375 258.28125 246.785156 257.078125 C 248.230469 254.289062 250.449219 251.160156 253.582031 247.074219 C 254.402344 248.613281 254.980469 250.246094 255.269531 251.980469 C 255.414062 252.75 255.511719 253.519531 255.558594 254.335938 C 255.558594 255.058594 255.558594 255.78125 255.460938 256.5 C 255.269531 257.847656 254.929688 259.195312 254.402344 260.445312 C 253.871094 261.601562 253.246094 262.707031 252.472656 263.714844 C 252.183594 264.101562 251.894531 264.4375 251.605469 264.773438 C 255.65625 261.984375 259.414062 258.859375 262.933594 255.441406 C 262.742188 255.25 262.546875 255.007812 262.355469 254.769531 C 261.535156 253.613281 261.003906 252.269531 260.859375 250.871094 C 260.714844 249.8125 260.714844 248.804688 260.8125 247.746094 C 260.910156 246.398438 261.148438 245.003906 261.535156 243.703125 C 261.96875 241.972656 262.546875 240.289062 263.222656 238.652344 C 263.558594 237.691406 263.945312 236.679688 264.425781 235.625 C 264.910156 234.613281 265.34375 233.410156 265.921875 232.257812 C 270.933594 238.125 270.597656 244.332031 268.71875 248.851562 C 268.523438 249.285156 268.332031 249.671875 268.140625 250.054688 C 271.367188 246.398438 274.359375 242.453125 277.007812 238.367188 C 276.769531 238.222656 276.527344 238.027344 276.285156 237.835938 C 275.226562 236.875 274.40625 235.71875 273.921875 234.371094 C 273.25 232.640625 272.910156 230.332031 272.960938 227.203125 C 273.007812 224.078125 273.683594 220.085938 274.886719 214.984375 C 281.007812 219.699219 281.925781 225.859375 281.058594 230.667969 C 280.960938 231.148438 280.863281 231.582031 280.769531 232.015625 C 282.40625 229.03125 283.949219 225.953125 285.300781 222.777344 C 285.878906 221.433594 286.457031 220.039062 286.988281 218.640625 C 286.699219 218.546875 286.457031 218.402344 286.167969 218.257812 C 284.960938 217.535156 283.902344 216.574219 283.179688 215.371094 C 281.105469 212.246094 279.902344 206.617188 280.285156 196.03125 C 287.132812 199.496094 289.398438 205.363281 289.398438 210.222656 C 289.398438 210.703125 289.398438 211.136719 289.398438 211.570312 C 290.84375 206.90625 292 202.140625 292.867188 197.285156 C 292.578125 197.234375 292.289062 197.1875 292 197.089844 C 290.648438 196.609375 289.445312 195.839844 288.480469 194.78125 C 287.179688 193.433594 285.972656 191.460938 284.867188 188.480469 C 284.578125 187.710938 284.382812 186.941406 284.09375 186.074219 C 283.804688 185.210938 283.5625 184.246094 283.324219 183.238281 C 283.082031 182.226562 282.890625 181.167969 282.648438 180.011719 C 282.40625 178.859375 282.261719 177.609375 282.023438 176.308594 C 285.203125 177.175781 288.09375 178.957031 290.265625 181.457031 C 291.132812 182.515625 291.902344 183.71875 292.433594 184.96875 C 292.964844 186.121094 293.398438 187.324219 293.640625 188.625 C 293.734375 189.105469 293.785156 189.585938 293.878906 190.019531 C 293.878906 189.777344 293.929688 189.539062 293.976562 189.296875 C 294.457031 184.632812 294.652344 179.964844 294.601562 175.300781 C 294.3125 175.300781 294.023438 175.300781 293.734375 175.25 C 292.335938 175.058594 290.988281 174.480469 289.878906 173.617188 C 289.011719 172.992188 288.238281 172.269531 287.566406 171.449219 C 286.648438 170.394531 285.878906 169.238281 285.15625 168.035156 C 284.769531 167.363281 284.335938 166.59375 283.949219 165.824219 C 283.515625 165.003906 283.128906 164.140625 282.695312 163.175781 C 282.261719 162.214844 281.878906 161.203125 281.445312 160.097656 C 281.007812 158.992188 280.574219 157.835938 280.140625 156.585938 C 287.855469 157.308594 291.953125 162.023438 293.832031 166.496094 C 294.023438 166.929688 294.167969 167.363281 294.3125 167.792969 C 293.976562 163.371094 293.398438 158.992188 292.578125 154.613281 C 292.480469 154.132812 292.386719 153.699219 292.289062 153.21875 C 292 153.265625 291.710938 153.316406 291.421875 153.316406 C 290.023438 153.363281 288.578125 153.074219 287.324219 152.449219 C 286.359375 152.015625 285.492188 151.4375 284.671875 150.765625 C 283.5625 149.898438 282.550781 148.9375 281.683594 147.878906 C 279.5625 145.523438 277.296875 142.203125 274.597656 137.679688 C 276.332031 137.488281 278.117188 137.535156 279.851562 137.875 C 281.347656 138.160156 282.792969 138.644531 284.144531 139.363281 C 285.347656 140.039062 286.503906 140.855469 287.46875 141.816406 C 288.382812 142.730469 289.203125 143.695312 289.925781 144.753906 C 290.167969 145.183594 290.410156 145.570312 290.648438 146.003906 C 289.347656 141.242188 287.757812 136.574219 285.828125 132.050781 C 285.539062 132.148438 285.300781 132.246094 285.011719 132.339844 C 283.660156 132.679688 282.214844 132.679688 280.863281 132.292969 C 279.035156 131.859375 276.960938 130.851562 274.40625 128.972656 C 271.851562 127.097656 269.007812 124.308594 265.441406 120.507812 C 267.125 119.976562 268.863281 119.640625 270.644531 119.640625 C 272.1875 119.59375 273.683594 119.785156 275.128906 120.21875 C 277.683594 120.988281 279.996094 122.382812 281.878906 124.308594 C 282.214844 124.644531 282.550781 124.980469 282.839844 125.367188 C 282.261719 124.257812 281.683594 123.152344 281.105469 122.046875 C 279.371094 118.824219 277.394531 115.695312 275.320312 112.714844 C 275.082031 112.90625 274.839844 113.050781 274.550781 113.195312 C 273.296875 113.820312 271.898438 114.109375 270.453125 114.011719 C 269.390625 113.964844 268.332031 113.820312 267.320312 113.582031 C 266.019531 113.195312 264.714844 112.761719 263.464844 112.183594 C 260.621094 110.933594 257.195312 108.867188 252.953125 106.027344 C 254.449219 105.113281 256.089844 104.390625 257.777344 103.960938 C 259.222656 103.574219 260.765625 103.429688 262.257812 103.527344 C 263.609375 103.621094 264.957031 103.863281 266.257812 104.296875 C 267.464844 104.730469 268.621094 105.304688 269.683594 105.980469 C 270.066406 106.269531 270.453125 106.507812 270.839844 106.796875 C 267.65625 102.851562 264.1875 99.195312 260.425781 95.828125 C 260.1875 95.78125 259.945312 95.734375 259.703125 95.683594 C 259.027344 95.492188 258.210938 95.300781 257.292969 94.964844 C 256.859375 94.820312 256.378906 94.625 255.847656 94.386719 C 255.316406 94.144531 254.785156 93.953125 254.257812 93.664062 C 251.558594 92.316406 248.953125 90.683594 246.59375 88.804688 C 243.074219 86.015625 239.699219 82.984375 236.519531 79.808594 C 241.242188 79.808594 245.917969 80.867188 250.207031 82.890625 C 253.195312 84.285156 255.847656 86.304688 258.015625 88.757812 C 258.449219 89.238281 258.835938 89.71875 259.171875 90.199219 C 259.511719 90.683594 259.800781 91.164062 260.039062 91.597656 C 260.476562 92.316406 260.859375 93.085938 261.148438 93.90625 C 261.246094 94.195312 261.34375 94.433594 261.4375 94.675781 C 262.980469 96.070312 264.476562 97.464844 265.921875 98.957031 C 265.679688 98.523438 265.390625 98.089844 265.152344 97.609375 C 264.570312 96.453125 264.042969 95.253906 263.558594 94 C 263.078125 92.65625 262.691406 91.210938 262.402344 89.816406 C 261.777344 86.402344 261.96875 82.9375 262.886719 79.570312 C 267.851562 84.332031 270.550781 88.613281 271.949219 92.027344 C 273.34375 95.445312 273.539062 98.042969 273.25 99.917969 C 273.054688 101.363281 272.476562 102.660156 271.511719 103.765625 C 271.320312 104.007812 271.078125 104.199219 270.839844 104.390625 C 274.066406 108.242188 277.007812 112.328125 279.613281 116.5625 C 279.46875 116.082031 279.324219 115.601562 279.179688 115.121094 C 277.925781 110.308594 277.347656 104.007812 281.203125 97.175781 C 284.816406 102.902344 286.457031 107.617188 287.082031 111.222656 C 287.324219 112.761719 287.421875 114.351562 287.324219 115.890625 C 287.226562 116.996094 286.988281 118.101562 286.601562 119.160156 C 286.121094 120.507812 285.25 121.660156 284.09375 122.527344 C 283.855469 122.71875 283.5625 122.863281 283.324219 123.007812 C 285.636719 127.433594 287.660156 132.050781 289.347656 136.71875 C 289.300781 136.238281 289.253906 135.757812 289.203125 135.226562 C 288.964844 130.273438 289.734375 124.019531 294.988281 118.148438 C 297.300781 124.453125 297.878906 129.359375 297.734375 133.015625 C 297.589844 136.671875 296.675781 139.074219 295.617188 140.664062 C 294.84375 141.867188 293.785156 142.875 292.480469 143.453125 C 292.191406 143.597656 291.902344 143.695312 291.613281 143.742188 C 292.578125 147.15625 293.445312 150.621094 294.121094 154.132812 C 294.410156 155.527344 294.601562 156.921875 294.84375 158.316406 C 294.890625 157.835938 294.941406 157.355469 295.035156 156.875 C 295.761719 151.96875 297.734375 146.003906 304.097656 141.289062 C 305.0625 147.878906 304.675781 152.785156 303.859375 156.347656 C 303.519531 157.886719 302.992188 159.328125 302.265625 160.722656 C 301.738281 161.734375 301.109375 162.648438 300.339844 163.464844 C 299.375 164.523438 298.074219 165.292969 296.675781 165.628906 C 296.386719 165.679688 296.097656 165.726562 295.761719 165.773438 C 296.195312 170.730469 296.339844 175.730469 296.195312 180.734375 C 296.289062 180.253906 296.433594 179.820312 296.628906 179.339844 C 297.496094 176.742188 298.796875 174.242188 300.484375 172.078125 C 302.605469 169.382812 305.304688 167.21875 308.4375 165.773438 C 308.148438 172.414062 306.894531 177.128906 305.351562 180.445312 C 304.726562 181.890625 303.953125 183.238281 302.992188 184.4375 C 302.316406 185.304688 301.496094 186.121094 300.582031 186.796875 C 299.421875 187.664062 298.027344 188.144531 296.628906 188.238281 C 296.339844 188.238281 296 188.238281 295.710938 188.191406 C 295.664062 188.527344 295.664062 188.863281 295.617188 189.203125 C 295.132812 193.867188 294.410156 198.484375 293.351562 203.007812 C 293.589844 202.574219 293.785156 202.140625 294.023438 201.710938 C 295.132812 199.542969 296.867188 197.332031 298.894531 195.503906 Z M 298.894531 195.503906 "/></g><path style=" stroke:none;fill-rule:evenodd;fill:#000000;fill-opacity:1;" d="M 212.714844 154.984375 C 212.898438 154.792969 213.097656 154.601562 213.136719 154.554688 C 213.757812 153.785156 214.269531 152.917969 214.65625 152.011719 C 215.714844 149.53125 215.886719 147 215.542969 144.34375 C 215.441406 143.546875 215.304688 142.75 215.183594 141.953125 C 215.167969 141.855469 215.148438 141.289062 215.03125 141.25 C 214.941406 141.21875 214.675781 141.96875 214.652344 142.03125 C 214.269531 142.957031 213.863281 143.878906 213.417969 144.773438 C 212.183594 147.269531 210.988281 149.871094 210.824219 152.699219 C 210.769531 153.65625 210.8125 154.980469 211.550781 155.742188 C 210.792969 160.742188 211.746094 165.699219 211.972656 170.714844 C 211.871094 170.25 211.757812 169.792969 211.632812 169.335938 C 210.507812 165.3125 208.332031 161.933594 205.226562 159.175781 C 204.554688 158.578125 203.871094 158 203.167969 157.441406 C 203.085938 157.378906 202.609375 156.910156 202.5 156.980469 C 202.34375 157.089844 202.578125 158.019531 202.601562 158.171875 C 202.800781 159.476562 203.042969 160.773438 203.242188 162.074219 C 203.886719 166.257812 206.085938 169.886719 208.9375 172.921875 C 209.652344 173.683594 210.789062 175.082031 211.898438 175.457031 C 211.5 179.953125 210.136719 184.199219 208.085938 188.195312 C 208.21875 187.605469 208.339844 187.011719 208.449219 186.417969 C 208.910156 183.917969 209.410156 180.601562 208.4375 178.070312 C 208.59375 177.980469 208.738281 177.863281 208.859375 177.714844 C 209.40625 177.054688 209.3125 176.074219 208.65625 175.527344 C 207.996094 174.980469 207.019531 175.074219 206.472656 175.734375 C 205.929688 176.394531 206.019531 177.375 206.679688 177.921875 C 206.898438 178.101562 207.152344 178.214844 207.417969 178.257812 C 208.4375 180.628906 207.890625 183.835938 207.449219 186.234375 C 207.386719 186.554688 207.324219 186.875 207.257812 187.195312 C 207.453125 183.984375 207.089844 180.652344 205.800781 177.695312 C 205.625 177.292969 204.730469 174.867188 204.085938 174.882812 C 203.917969 174.886719 203.890625 175.757812 203.875 175.875 C 203.710938 176.984375 203.425781 178.082031 203.132812 179.164062 C 202.113281 182.898438 202.152344 186.3125 203.578125 189.988281 C 203.988281 191.046875 204.867188 191.910156 205.292969 192.933594 C 204.082031 194.8125 202.828125 196.660156 201.609375 198.53125 C 201.601562 198.210938 201.585938 197.890625 201.574219 197.570312 C 201.480469 195.648438 201.152344 193.773438 200.457031 191.976562 C 200.441406 191.933594 200.417969 191.894531 200.394531 191.859375 C 200.429688 191.824219 200.464844 191.785156 200.496094 191.746094 C 201.042969 191.085938 200.949219 190.105469 200.289062 189.558594 C 199.632812 189.011719 198.65625 189.105469 198.109375 189.765625 C 197.5625 190.425781 197.65625 191.40625 198.316406 191.949219 C 198.65625 192.234375 199.085938 192.347656 199.492188 192.296875 C 199.496094 192.3125 199.503906 192.328125 199.507812 192.347656 C 200.164062 194.039062 200.472656 195.804688 200.554688 197.617188 C 200.585938 198.25 200.609375 198.882812 200.617188 199.515625 C 200.617188 199.609375 200.5625 199.738281 200.53125 199.863281 C 200.484375 200.03125 200.453125 200.195312 200.457031 200.316406 L 200.457031 200.332031 C 199.320312 202.140625 198.242188 203.984375 197.292969 205.910156 C 196.695312 207.117188 197.617188 207.550781 198.203125 206.363281 C 199.042969 204.664062 199.980469 203.027344 200.972656 201.425781 C 201.308594 201.277344 201.675781 201.140625 201.707031 201.128906 C 203.242188 200.570312 204.933594 200.296875 206.554688 200.132812 C 210.363281 199.75 213.328125 198.472656 215.519531 195.207031 C 215.851562 194.707031 217.222656 192.914062 216.996094 192.214844 C 216.980469 192.164062 216.113281 192.539062 216.050781 192.5625 C 214.960938 192.957031 213.882812 193.371094 212.808594 193.808594 C 210.351562 194.8125 207.96875 195.914062 205.578125 197.0625 C 204.621094 197.523438 203.707031 197.921875 202.875 198.453125 C 204.308594 196.273438 205.777344 194.113281 207.15625 191.894531 C 208.660156 189.46875 209.929688 186.949219 210.902344 184.335938 C 211.203125 184.351562 211.710938 184.453125 211.914062 184.445312 C 212.871094 184.398438 213.820312 184.230469 214.746094 183.984375 C 218.671875 182.929688 221.984375 180.1875 224.21875 176.835938 C 224.945312 175.742188 225.628906 174.605469 226.1875 173.417969 C 226.265625 173.253906 226.695312 172.492188 226.484375 172.304688 C 226.382812 172.210938 225.640625 172.898438 225.550781 172.964844 C 224.582031 173.679688 223.5 174.195312 222.449219 174.78125 C 219.15625 176.617188 215.777344 178.597656 212.953125 181.160156 C 213.285156 180.5625 213.617188 179.964844 213.964844 179.375 C 215.546875 176.6875 217.195312 174.160156 219.636719 172.195312 C 219.644531 172.1875 219.652344 172.183594 219.660156 172.175781 C 220.308594 172.585938 221.179688 172.460938 221.683594 171.851562 C 222.226562 171.191406 222.132812 170.210938 221.476562 169.664062 C 220.816406 169.117188 219.839844 169.210938 219.292969 169.871094 C 218.933594 170.308594 218.851562 170.882812 219.027344 171.378906 C 219.019531 171.386719 219.007812 171.390625 219 171.398438 C 216.460938 173.445312 214.734375 176.0625 213.089844 178.855469 C 212.722656 179.476562 212.371094 180.109375 212.023438 180.742188 C 212.625 178.371094 212.976562 175.925781 213.027344 173.40625 C 213.070312 171.429688 212.929688 169.46875 212.757812 167.507812 C 212.808594 167.386719 212.894531 167.082031 212.972656 166.964844 C 213.214844 166.59375 213.484375 166.230469 213.773438 165.890625 C 214.601562 164.921875 215.5625 164.078125 216.523438 163.25 C 219.675781 160.535156 222.097656 157.941406 223.515625 153.914062 C 223.835938 153.003906 224.113281 152.070312 224.269531 151.117188 C 224.289062 151.003906 224.46875 150.28125 224.351562 150.183594 C 224.300781 150.140625 223.46875 150.964844 223.410156 151.019531 C 222.390625 151.898438 221.3125 152.714844 220.25 153.542969 C 217.800781 155.453125 216.324219 157.929688 214.800781 160.589844 C 214.371094 161.34375 213.960938 162.039062 213.59375 162.71875 C 213.738281 161.945312 213.90625 161.175781 214.113281 160.414062 C 214.972656 157.261719 216.148438 154.222656 217.925781 151.480469 C 218.496094 151.632812 219.128906 151.453125 219.527344 150.972656 C 220.074219 150.308594 219.980469 149.332031 219.320312 148.785156 C 218.664062 148.238281 217.683594 148.328125 217.140625 148.992188 C 216.675781 149.550781 216.671875 150.34375 217.085938 150.902344 C 215.246094 153.742188 214.023438 156.882812 213.132812 160.148438 C 212.828125 161.265625 212.605469 162.402344 212.414062 163.546875 C 212.207031 160.695312 212.148438 157.847656 212.714844 154.984375 Z M 212.714844 154.984375 "/><g clip-rule="nonzero" clip-path="url(#d11bd0e5f9)"><path style=" stroke:none;fill-rule:nonzero;fill:#000000;fill-opacity:1;" d="M 202.109375 204.035156 L 195.375 201.570312 L 193.519531 206.203125 L 166.75 145.824219 C 165.5625 143.140625 164.917969 141.003906 164.820312 139.410156 C 164.820312 137.125 165.761719 135.683594 167.644531 135.089844 C 169.628906 134.589844 172.453125 134.34375 176.117188 134.34375 L 176.117188 131.359375 L 136.710938 131.359375 L 136.710938 134.34375 C 140.183594 134.34375 142.863281 135.136719 144.746094 136.726562 C 146.429688 138.21875 148.015625 140.40625 149.5 143.289062 L 189.207031 231.703125 L 191.136719 231.703125 Z M 218.417969 142.355469 L 225.535156 144.964844 C 227.203125 140.753906 228.925781 137.957031 230.691406 136.578125 C 232.675781 135.089844 235.101562 134.34375 237.976562 134.34375 L 237.976562 131.359375 L 207.496094 131.359375 L 207.496094 134.34375 C 214.832031 134.34375 218.496094 136.578125 218.496094 141.050781 C 218.496094 141.464844 218.472656 141.898438 218.417969 142.355469 Z M 218.417969 142.355469 "/></g></g></svg>